<svg fill="none" height="88" viewBox="0 0 88 88" width="88" xmlns="http://www.w3.org/2000/svg" xmlns:xlink="http://www.w3.org/1999/xlink"><clipPath id="a"><path d="m17 17h55v55h-55z"/></clipPath><g clip-path="url(#a)"><path d="m54.8125 51.375c9.4961 0 17.1875-7.6914 17.1875-17.1875 0-1.6436-.2363-3.2334-.666-4.748-.333-1.1602-1.7617-1.418-2.6104-.5694l-8.25 8.25c-.3222.3223-.7627.5049-1.2138.5049h-6.166c-.9454 0-1.7188-.7734-1.7188-1.7188v-6.166c0-.4511.1826-.8916.5049-1.2138l8.25-8.25c.8486-.8487.5801-2.2774-.5694-2.6104-1.5146-.4297-3.1044-.666-4.748-.666-9.4961 0-17.1875 7.6914-17.1875 17.1875 0 2.0518.3652 4.0283 1.0205 5.8545l-19.5078 19.5078c-1.3643 1.3643-2.1377 3.2227-2.1377 5.1563 0 4.0283 3.2656 7.2939 7.2939 7.2939 1.9336 0 3.792-.7734 5.1563-2.1377l19.5078-19.5078c1.8262.666 3.8027 1.0205 5.8545 1.0205zm-29.2187 9.4531c.6837 0 1.3395.2717 1.823.7551.4835.4835.7551 1.1393.7551 1.823 0 .6838-.2716 1.3396-.7551 1.8231-.4835.4834-1.1393.7551-1.823.7551-.6838 0-1.3396-.2717-1.8231-.7551-.4835-.4835-.7551-1.1393-.7551-1.8231 0-.6837.2716-1.3395.7551-1.823.4835-.4834 1.1393-.7551 1.8231-.7551z" fill="#808080"/></g></svg>