<svg fill="none" height="88" viewBox="0 0 88 88" width="88" xmlns="http://www.w3.org/2000/svg" xmlns:xlink="http://www.w3.org/1999/xlink"><clipPath id="a"><path d="m6 14h76v60.8h-76z"/></clipPath><g clip-path="url(#a)"><path d="m16.4732 50.7056c1.1637-2.1731.8075-4.845-.8906-6.6262-2.5294-2.66-3.8832-5.8544-3.8832-9.1794 0-7.5406 7.5763-15.2 19-15.2 11.4238 0 19 7.6594 19 15.2s-7.5762 15.2-19 15.2c-1.5556 0-3.0637-.1544-4.4887-.4275-1.235-.2375-2.5175-.0713-3.6456.4987-.4869.2494-.9857.4869-1.4963.7126-1.9.855-3.9069 1.6031-5.9256 2.1375.3325-.5463.6412-1.0807.9381-1.6151.1306-.2256.2613-.4631.38-.7006zm-10.47376-15.8056c0 4.9638 2.0425 9.5119 5.45066 13.0981-.1069.2019-.2257.4156-.3325.6056-1.22316 2.185-2.64816 4.3344-4.34629 6.1869-.78375.8313-.98562 2.0425-.54625 3.0756.46313 1.0569 1.48438 1.7338 2.62438 1.7338 5.10626 0 10.27186-1.5794 14.57066-3.5269.57-.2612 1.14-.5344 1.6862-.8075 1.7931.3563 3.6694.5344 5.5931.5344 13.6444 0 24.7-9.3575 24.7-20.9s-11.0556-20.9-24.7-20.9c-13.6443 0-24.69996 9.3575-24.69996 20.9zm51.29996 36.1c1.9238 0 3.7882-.19 5.5932-.5344.5462.2732 1.1162.5463 1.6862.8075 4.2988 1.9475 9.4644 3.5269 14.5706 3.5269 1.14 0 2.1613-.6769 2.6125-1.7219.4513-1.045.2376-2.2562-.5462-3.0756-1.6863-1.8525-3.1113-4.0019-4.3463-6.1869-.1068-.2018-.2256-.4037-.3325-.6056 3.42-3.5981 5.4625-8.1462 5.4625-13.11 0-11.21-10.4381-20.3656-23.5362-20.8763.4869 1.805.7362 3.705.7362 5.6763v.0713c10.355.7956 17.1 8.0156 17.1 15.1287 0 3.325-1.3537 6.5194-3.8831 9.1675-1.6981 1.7813-2.0544 4.465-.8906 6.6262.1306.2375.2612.475.38.7007.2969.5343.6175 1.0687.9381 1.615-2.0187-.5344-4.0256-1.2706-5.9256-2.1375-.5106-.2257-1.0094-.4632-1.4963-.7125-1.1281-.57-2.4106-.7363-3.6456-.4988-1.4369.285-2.9331.4275-4.4887.4275-7.3269 0-13.0625-3.1468-16.245-7.3981-1.9.6412-3.895 1.1162-5.9375 1.4012 4.0256 6.935 12.4568 11.7088 22.1943 11.7088z" fill="#7f7f7f"/></g></svg>