<?xml version="1.0" encoding="UTF-8"?>
<svg version="1.1" xmlns="http://www.w3.org/2000/svg" width="1594" height="288">
<path d="M0 0 C0.51388225 4.08082967 0.32241677 5.58305266 -2.23828125 8.89453125 C-3.24657263 9.88422812 -4.27248914 10.85619 -5.3125 11.8125 C-5.85430908 12.33166992 -6.39611816 12.85083984 -6.9543457 13.38574219 C-11.26764574 17.46377132 -15.79982441 21.25214143 -20.44921875 24.94140625 C-22.72730488 26.77992293 -24.86076296 28.69172264 -27 30.6875 C-39.8218984 42.18378324 -54.60447002 51.61814073 -69 61 C-70.45971512 61.95821193 -71.919351 62.91654457 -73.37890625 63.875 C-81.89522497 69.44657606 -90.51029283 74.8153453 -99.28173828 79.97558594 C-100.93962212 80.96400319 -102.57772961 81.98536211 -104.21484375 83.0078125 C-109.83567472 86.46567248 -114.68597439 88.83544235 -121.234375 89.90625 C-124.05654939 91.02236417 -125.08963481 91.94583057 -127.21875 94.01953125 C-133.72119839 99.95396717 -141.911186 103.35519731 -149.75 107.1875 C-151.44802031 108.02851798 -153.14593604 108.86974715 -154.84375 109.71118164 C-166.21737659 115.31348314 -177.70915316 120.54605705 -189.44433594 125.34643555 C-194.72293231 127.51370696 -199.34921132 129.70314158 -204 133 C-204.66 133 -205.32 133 -206 133 C-201.30526421 139.08028819 -196.3661375 144.85391582 -191.1328125 150.47241211 C-188.18377005 153.6569121 -185.39695068 156.91813242 -182.6875 160.3125 C-178.30758079 165.77545378 -173.55162905 170.83576543 -168.69604492 175.87426758 C-168.11701416 176.48165771 -167.5379834 177.08904785 -166.94140625 177.71484375 C-166.42263916 178.25230225 -165.90387207 178.78976074 -165.36938477 179.34350586 C-164 181 -164 181 -162.97851562 183.09082031 C-161.7432918 185.5008628 -160.04727805 186.43141094 -157.78857422 187.83447266 C-155.75700602 189.15834743 -153.89538823 190.61950398 -152.00390625 192.13671875 C-144.1774928 198.39696965 -136.4274381 204.3165492 -127.68383789 209.24682617 C-121.72078323 212.61310714 -121.72078323 212.61310714 -120 215 C-120 216.32 -120 217.64 -120 219 C-123.52354865 220.76177433 -127.24788798 219.80253507 -131 219 C-134.00706577 217.81494272 -136.72488001 216.27411085 -139.5 214.625 C-140.27263184 214.17946777 -141.04526367 213.73393555 -141.84130859 213.27490234 C-159.53511101 202.95801572 -176.51907102 191.54672769 -191.41796875 177.43359375 C-193.50467023 175.46685393 -195.62005866 173.59503093 -197.8125 171.75 C-200.43913388 169.49705218 -202.87012221 167.12175895 -205.26171875 164.625 C-213.80859434 155.73957786 -222.57707124 148.5879484 -233 142 C-236.32787903 145.05486013 -238.51712893 148.24484116 -240.8125 152.125 C-243.31165019 156.30220141 -245.90194342 160.36196991 -248.75 164.3125 C-251.2110996 167.75580715 -253.24691761 171.15569833 -254.98046875 175.015625 C-256 177 -256 177 -257.95703125 179.78515625 C-260.13315702 183.20953772 -261.29408908 186.32125181 -262.5 190.1875 C-262.92779331 191.51191015 -263.3561839 192.83612752 -263.78515625 194.16015625 C-264.53569357 196.51840193 -265.27005638 198.88006609 -265.99609375 201.24609375 C-267.96147613 207.25641248 -269.6682384 210.4858844 -275 214 C-276.9375 213.3125 -276.9375 213.3125 -279 212 C-280.67104616 207.31749633 -279.46949212 203.11378849 -278.375 198.4375 C-278.18824707 197.63103027 -278.00149414 196.82456055 -277.80908203 195.99365234 C-276.19308528 189.30644659 -274.00446364 183.19852935 -271 177 C-270.64099609 176.25459961 -270.28199219 175.50919922 -269.91210938 174.74121094 C-263.0432283 160.54293414 -255.42711888 147.04779191 -246.8203125 133.8359375 C-245.04986582 131.18872279 -245.04986582 131.18872279 -244 129 C-244.8971875 128.62875 -244.8971875 128.62875 -245.8125 128.25 C-248.47957184 126.72595895 -249.56182071 125.73254065 -251 123 C-251.50882435 118.42058089 -251.6786012 116.17450208 -249.375 112.1875 C-246.5345054 109.57125497 -244.68961753 108.25183452 -241 107 C-239.07266138 107.15924127 -237.14691732 107.33834778 -235.22265625 107.53125 C-230.64985564 107.58215989 -230.64985564 107.58215989 -226.88818359 105.24536133 C-225.02322027 102.68608606 -223.46686689 100.08528517 -221.9375 97.3125 C-220.75894512 95.36593837 -219.57402956 93.42321375 -218.3828125 91.484375 C-217.81208008 90.53755859 -217.24134766 89.59074219 -216.65332031 88.61523438 C-214.47389681 85.16780606 -212.01841142 82.10512538 -209.3125 79.0625 C-208.42306717 78.05348229 -207.53374326 77.04436856 -206.64453125 76.03515625 C-206.20963379 75.54289551 -205.77473633 75.05063477 -205.32666016 74.54345703 C-202.94867121 71.77686776 -200.7325302 68.88421113 -198.5 66 C-194.87003588 61.32726267 -191.15202406 56.75217628 -187.3125 52.25 C-186.62571167 51.44091187 -186.62571167 51.44091187 -185.92504883 50.61547852 C-183.87298362 48.1980429 -181.81526294 45.78617804 -179.7421875 43.38671875 C-176.11869097 39.06745578 -173.41536544 35.01144669 -171.0625 29.875 C-166.51847871 20.33378009 -158.72662818 14.7486567 -149 11 C-133.58089415 6.05311999 -133.58089415 6.05311999 -126.5 9.0625 C-124.73270379 11.3452576 -124.43668171 12.97162367 -124.61328125 15.83984375 C-126.22575128 24.84687331 -129.92913574 32.174977 -137.375 37.59765625 C-138.57756654 38.42768859 -139.78600281 39.24927752 -141 40.0625 C-145.44569385 43.06904296 -149.27369222 46.09084463 -153 50 C-157.39466013 54.21992215 -161.89322899 57.98121719 -166.96923828 61.36474609 C-179.641768 69.88838618 -188.37554267 81.88503592 -197.42407227 94.01391602 C-201.06441732 98.88207325 -204.94056995 103.47588194 -209 108 C-202.41294118 106.31476984 -195.98727725 104.33865515 -189.5625 102.125 C-183.12391732 99.91065466 -176.69381349 98.15733796 -170.0625 96.625 C-142.81604683 90.10226917 -117.53332868 74.76311543 -94 60 C-93.10974121 59.443125 -92.21948242 58.88625 -91.30224609 58.3125 C-84.83620945 54.25750869 -78.40612541 50.14893357 -72 46 C-71.18724609 45.47374023 -70.37449219 44.94748047 -69.53710938 44.40527344 C-56.52929833 35.94643677 -43.88412714 27.06848787 -32.0625 17 C-27.25778291 12.96981381 -22.3538164 9.10580511 -17.3125 5.375 C-16.62357666 4.84132813 -15.93465332 4.30765625 -15.22485352 3.7578125 C-9.95878234 -0.05699898 -6.4715994 -0.54618013 0 0 Z " fill="#0E0D0D" transform="translate(498,0)"/>
<path d="M0 0 C6.6498012 5.44074643 13.02778636 12.27532356 14.09375 21.09375 C14.32547943 28.43184853 14.32547943 28.43184853 12.453125 31.09375 C10.75 32.25 10.75 32.25 7.0625 31.9375 C5.969375 31.710625 4.87625 31.48375 3.75 31.25 C3.49605469 30.57453125 3.24210937 29.8990625 2.98046875 29.203125 C2.46419922 27.86507812 2.46419922 27.86507812 1.9375 26.5 C1.60105469 25.61828125 1.26460937 24.7365625 0.91796875 23.828125 C-0.21887829 21.31869674 -1.5941136 19.43254368 -3.25 17.25 C-3.25 16.59 -3.25 15.93 -3.25 15.25 C-12.45742928 12.75111523 -18.81662019 13.12428494 -27.1875 17.8125 C-34.50781702 22.48118516 -40.56535161 28.46431881 -46.5 34.75 C-50.66897149 39.01592432 -55.26637102 42.06026622 -60.37792969 45.06835938 C-64.20720526 47.36549374 -66.67826649 49.61428527 -69.25 53.25 C-69.62874268 53.77754883 -70.00748535 54.30509766 -70.39770508 54.84863281 C-71.61502489 56.55479373 -72.80981952 58.27481983 -74 60 C-74.41121094 60.58910156 -74.82242187 61.17820312 -75.24609375 61.78515625 C-77.33411152 64.30004024 -77.33411152 64.30004024 -78.25 67.25 C-73.96 67.25 -69.67 67.25 -65.25 67.25 C-64.755 65.765 -64.755 65.765 -64.25 64.25 C-61.67166541 63.3681103 -59.23235574 62.69485188 -56.5859375 62.09375 C-55.80167389 61.90534546 -55.01741028 61.71694092 -54.2093811 61.52282715 C-51.68397195 60.91969028 -49.15466672 60.33499145 -46.625 59.75 C-44.97368858 59.35659934 -43.32264322 58.96208008 -41.671875 58.56640625 C-2.6107494 49.27087798 -2.6107494 49.27087798 6.75 54.25 C10.42628463 54.25 11.82190133 53.14836195 14.9375 51.25 C20.0844667 48.38530669 22.92350374 47.39035301 28.75 48.25 C30.78322276 48.95703424 32.75549558 49.75232132 34.73828125 50.58984375 C36.93719491 51.31142901 38.63293701 51.38600389 40.9375 51.3125 C45.28787108 51.24118244 47.95162824 51.80425015 51.34375 54.53125 C53.12567404 56.70915716 53.23592404 58.15575175 53.4375 60.9375 C53.50324219 61.74574219 53.56898438 62.55398437 53.63671875 63.38671875 C53.69279297 64.30904297 53.69279297 64.30904297 53.75 65.25 C65.60166497 64.7759334 77.06983906 63.26863651 88.75 61.25 C89.5 62.9375 89.5 62.9375 89.75 65.25 C87.153617 69.57234879 84.79713424 70.99432015 79.98828125 72.234375 C78.86873047 72.52957031 77.74917969 72.82476562 76.59570312 73.12890625 C74.84676758 73.56009766 74.84676758 73.56009766 73.0625 74 C71.91587891 74.30292969 70.76925781 74.60585937 69.58789062 74.91796875 C63.30184436 76.5371564 57.22027307 77.72631443 50.75 78.25 C50.57984375 79.94576172 50.57984375 79.94576172 50.40625 81.67578125 C48.84641717 93.99466934 44.58783382 105.28122714 37.09375 115.1484375 C35.0565785 117.84429446 33.2780675 120.5435335 31.52172852 123.41943359 C20.60073162 141.22845397 5.00529121 158.84430697 -15.6640625 164.96484375 C-21.59139432 165.98324632 -26.37503153 164.29565549 -31.5 161.4375 C-35.44392291 158.30028859 -37.289218 155.13745624 -38.25 150.25 C-39.8282723 131.6489336 -34.35559144 115.24621705 -25.25 99.25 C-24.73244141 98.33621582 -24.21488281 97.42243164 -23.68164062 96.48095703 C-21.9697019 93.47816923 -20.2401338 90.48653143 -18.5 87.5 C-17.94505859 86.54633545 -17.39011719 85.5926709 -16.81835938 84.61010742 C-16.01881836 83.26396362 -16.01881836 83.26396362 -15.203125 81.890625 C-14.73036133 81.09172852 -14.25759766 80.29283203 -13.77050781 79.46972656 C-12.13324887 77.07955985 -10.42293712 75.16485299 -8.25 73.25 C-7.59 73.25 -6.93 73.25 -6.25 73.25 C-6.188125 72.569375 -6.12625 71.88875 -6.0625 71.1875 C-4.97475391 67.25487951 -2.90427064 64.32597719 -0.25 61.25 C0.41 60.92 1.07 60.59 1.75 60.25 C-19.78758835 62.08702959 -40.23037623 68.32728195 -60.25 76.25 C-61.26191406 76.64767578 -62.27382812 77.04535156 -63.31640625 77.45507812 C-88.90582716 86.49318056 -88.90582716 86.49318056 -106.5625 105.5625 C-107.16075381 106.81153561 -107.75974112 108.0602201 -108.359375 109.30859375 C-108.66681641 109.95554199 -108.97425781 110.60249023 -109.29101562 111.26904297 C-110.25044022 113.25090936 -111.24966832 115.2067309 -112.265625 117.16015625 C-117.70766832 127.66275487 -123.00700195 138.56279964 -125.25 150.25 C-127.22435185 156.07180672 -129.80357693 161.96229587 -135.25 165.25 C-138.3267109 166.00312278 -140.00564398 165.78186164 -143.25 165.25 C-145.25689879 163.20511124 -146.14730429 161.83544191 -146.64404297 159.00366211 C-146.57496172 152.79451394 -145.529912 147.62328701 -143.375 141.8125 C-142.91613403 140.54019531 -142.91613403 140.54019531 -142.44799805 139.2421875 C-133.50987157 115.38956715 -133.50987157 115.38956715 -125.25 108.25 C-126.508125 107.981875 -127.76625 107.71375 -129.0625 107.4375 C-131.40109221 106.83319122 -133.16617348 106.299772 -135.25 105.0625 C-136.97000973 101.94498237 -136.70933486 99.75242833 -136.25 96.25 C-133.90820572 91.36004644 -130.98018525 86.42711266 -125.8671875 84.22265625 C-124.50980469 83.77212891 -124.50980469 83.77212891 -123.125 83.3125 C-118.74320495 81.79973742 -114.53016332 80.11653902 -110.3203125 78.1796875 C-108.25 77.25 -108.25 77.25 -105.6484375 76.3828125 C-102.76912081 75.02287465 -102.18867719 74.04958804 -100.75 71.25 C-92.63176099 56.84064483 -81.84035693 43.89471714 -71.25 31.25 C-70.73018555 30.62577148 -70.21037109 30.00154297 -69.67480469 29.35839844 C-51.95297064 8.12553018 -28.89265965 -15.55758596 0 0 Z M14.75 75.25 C13.28871062 76.66257452 13.28871062 76.66257452 12.1875 78.5625 C9.94872484 82.06379755 9.94872484 82.06379755 8.32421875 83.5859375 C6.06511161 85.97397631 4.70822254 88.68598662 3.125 91.5625 C0.67928006 95.96605569 -1.85844271 100.24229084 -4.6706543 104.421875 C-11.73773265 114.96280693 -16.71668358 125.97250943 -19.75 138.3125 C-19.92249268 139.00255127 -20.09498535 139.69260254 -20.27270508 140.40356445 C-21.31171693 145.07769604 -21.16254668 148.63323426 -20.25 153.25 C-16.51443935 154.42661932 -14.15751748 153.94586516 -10.5078125 152.4375 C7.05070867 143.20256845 18.42898966 125.68090827 27.33984375 108.703125 C28.72044031 106.3014224 30.25012356 104.26701743 32 102.125 C34.7233606 98.66406257 35.65599938 95.66443224 36.3828125 91.35546875 C36.75 89.25 36.75 89.25 37.875 85.9375 C38.9563907 83.08714484 38.9563907 83.08714484 38.75 79.25 C37.21279297 79.06824219 37.21279297 79.06824219 35.64453125 78.8828125 C34.28381021 78.71389541 32.9231355 78.5446048 31.5625 78.375 C30.88896484 78.29636719 30.21542969 78.21773438 29.52148438 78.13671875 C25.61693008 77.64150699 22.37062743 76.73827173 18.75 75.25 C17.43 75.25 16.11 75.25 14.75 75.25 Z " fill="#0E0D0D" transform="translate(1253.25,36.75)"/>
<path d="M0 0 C3.32275209 2.56280392 5.41221619 4.87810263 6.29296875 8.98828125 C6.41796875 12.36328125 6.41796875 12.36328125 5.29296875 15.98828125 C3.47835354 17.93062423 1.53192715 19.5346626 -0.54296875 21.1953125 C-3.2592678 23.44582019 -5.41225134 25.96866611 -7.68359375 28.65625 C-9.66562477 30.94055988 -11.72913638 33.13106753 -13.81396484 35.32128906 C-20.86011155 42.7685834 -27.15949683 50.67590878 -33.21240234 58.94628906 C-34.14247551 60.21697381 -35.07915403 61.48288354 -36.02587891 62.74121094 C-44.54932422 74.12607447 -50.26522227 87.03759569 -56.28260803 99.84863281 C-58.61063194 104.80265486 -61.00424873 109.71999767 -63.45703125 114.61328125 C-63.92326904 115.55192017 -63.92326904 115.55192017 -64.39892578 116.50952148 C-65.71272959 119.13000109 -67.07677465 121.54289635 -68.70703125 123.98828125 C-69.51320847 126.46231063 -70.25567262 128.92227305 -70.95703125 131.42578125 C-71.39372798 132.95205298 -71.83126498 134.47808447 -72.26953125 136.00390625 C-72.50027344 136.81021484 -72.73101562 137.61652344 -72.96875 138.44726562 C-73.7358206 141.0873684 -74.52965791 143.71807727 -75.33203125 146.34765625 C-75.60241211 147.23525635 -75.87279297 148.12285645 -76.15136719 149.03735352 C-76.67817301 150.76256276 -77.20737167 152.48704361 -77.73925781 154.21069336 C-80.13123096 162.08493518 -80.87155193 169.412788 -81.14453125 177.61328125 C-81.99832784 199.16587625 -81.99832784 199.16587625 -85.70703125 204.98828125 C-88.64453125 205.92578125 -88.64453125 205.92578125 -91.70703125 205.98828125 C-94.29933629 204.20048467 -94.6937073 203.0282531 -95.70703125 199.98828125 C-96.79834664 186.82139574 -95.59372185 173.42289951 -94.39453125 160.30078125 C-94.33567749 159.62713531 -94.27682373 158.95348938 -94.21618652 158.25942993 C-92.95577333 144.08885233 -89.77485577 132.33197912 -83.73046875 119.51171875 C-79.10184201 109.33448977 -75.97463188 98.66352502 -72.70703125 87.98828125 C-78.84756055 94.10553358 -84.98530542 100.22556261 -91.1196146 106.34905243 C-93.96878778 109.19303015 -96.81887375 112.03607982 -99.67114258 114.87695312 C-102.42904844 117.62391059 -105.18442986 120.37337795 -107.93815422 123.12452698 C-108.98371713 124.16825701 -110.03015257 125.21111382 -111.07751656 126.2530365 C-116.3325245 131.48185229 -121.51401768 136.73072738 -126.32633972 142.37586975 C-132.19276714 149.22685336 -138.89312627 155.10146775 -145.9296875 160.70703125 C-148.75952401 163.03139767 -151.41485607 165.47982041 -154.08203125 167.98828125 C-169.2889278 181.98828125 -169.2889278 181.98828125 -174.70703125 181.98828125 C-175.03703125 182.97828125 -175.36703125 183.96828125 -175.70703125 184.98828125 C-177.02477321 185.37872331 -178.36370397 185.69783211 -179.70703125 185.98828125 C-181.72426469 186.95304507 -183.72315417 187.95666517 -185.70703125 188.98828125 C-192.00703836 192.26428495 -197.54815708 194.12775603 -204.70703125 192.98828125 C-207.77944172 191.27997003 -210.11247645 189.17739084 -211.70703125 185.98828125 C-212.55537179 177.65220931 -210.80354538 170.53864118 -208.20703125 162.67578125 C-207.84319336 161.54277588 -207.47935547 160.40977051 -207.10449219 159.24243164 C-205.99312083 155.81698182 -204.85429861 152.40185532 -203.70703125 148.98828125 C-203.38669922 148.01826172 -203.06636719 147.04824219 -202.73632812 146.04882812 C-195.53881074 124.42571326 -185.78185766 104.21905637 -173.18505859 85.23583984 C-170.73240109 81.50621232 -168.38425772 77.7115094 -166.01953125 73.92578125 C-162.54029886 68.36618917 -158.97473264 62.87435419 -155.3125 57.43359375 C-154.157635 55.7067624 -153.00370245 53.97931104 -151.84994507 52.2517395 C-150.7412161 50.60165735 -149.61753283 48.96165402 -148.4934082 47.32202148 C-145.02191131 42.12466933 -142.39834851 37.55617566 -140.70703125 31.515625 C-139.5063435 27.54271808 -138.63840599 25.30628028 -135.125 23.00390625 C-133.67794471 22.27853501 -132.20201163 21.60889877 -130.70703125 20.98828125 C-129.87123535 20.62541016 -129.03543945 20.26253906 -128.17431641 19.88867188 C-125.47689004 18.77235919 -122.75952406 17.7452044 -120.01953125 16.73828125 C-119.09591797 16.38765625 -118.17230469 16.03703125 -117.22070312 15.67578125 C-106.23897652 11.56455171 -106.23897652 11.56455171 -102.6875 12.546875 C-100.19726562 13.76757812 -100.19726562 13.76757812 -97.70703125 14.98828125 C-97.70703125 15.64828125 -97.70703125 16.30828125 -97.70703125 16.98828125 C-97.04703125 16.98828125 -96.38703125 16.98828125 -95.70703125 16.98828125 C-95.1604415 20.658241 -94.99063996 22.84980799 -97.00195312 26.04614258 C-101.3705427 31.45343927 -105.88965465 36.66702423 -110.64453125 41.73828125 C-111.30904297 42.46660156 -111.97355469 43.19492188 -112.65820312 43.9453125 C-116.44936892 47.99755761 -120.08267392 51.00187685 -124.86499023 53.79345703 C-127.88225153 55.75057788 -130.01252703 58.28205935 -132.26953125 61.05078125 C-132.76783447 61.64729492 -133.2661377 62.24380859 -133.77954102 62.85839844 C-140.08493631 70.50728109 -145.98407406 78.47827096 -151.85205078 86.46435547 C-153.6389846 88.89569553 -155.43633812 91.31905383 -157.234375 93.7421875 C-174.12249207 116.6423186 -187.20923922 141.17754209 -189.70703125 169.98828125 C-184.78576091 170.15510397 -181.20359229 170.23656177 -176.70703125 167.98828125 C-176.70703125 167.32828125 -176.70703125 166.66828125 -176.70703125 165.98828125 C-175.95421875 165.6221875 -175.20140625 165.25609375 -174.42578125 164.87890625 C-164.69749497 159.92031373 -156.25035903 153.75789275 -147.70703125 146.98828125 C-146.8243457 146.29943848 -146.8243457 146.29943848 -145.92382812 145.59667969 C-137.63300282 139.09061873 -130.76601713 131.87923626 -124.16992188 123.66650391 C-122.12867391 121.32479187 -119.90937448 119.17881717 -117.70703125 116.98828125 C-116.5870726 115.87165352 -116.5870726 115.87165352 -115.44448853 114.73246765 C-114.67728485 113.96828018 -113.91008118 113.20409271 -113.11962891 112.41674805 C-108.76348514 108.07661896 -104.40956028 103.73427591 -100.05724525 99.39030743 C-97.43499809 96.7732739 -94.81182345 94.15718419 -92.18652344 91.54321289 C-89.63033475 88.99797671 -87.07667547 86.4502268 -84.52466965 83.90079689 C-83.09576558 82.47460137 -81.66432514 81.05094846 -80.2328186 79.62736511 C-75.71379502 75.10872753 -71.31787882 70.54746393 -67.16656494 65.68716431 C-64.80552086 62.9389319 -62.31003247 60.31809288 -59.83203125 57.67578125 C-54.53499762 51.97357333 -49.53882917 46.09250994 -44.70703125 39.98828125 C-43.94132813 39.05242188 -43.175625 38.1165625 -42.38671875 37.15234375 C-36.35589697 29.60896859 -31.28518318 21.67854108 -26.43652344 13.32275391 C-22.57849573 6.83733901 -18.60715288 1.85708953 -11.70703125 -1.44921875 C-7.43955155 -2.24937119 -3.83640401 -2.27374974 0 0 Z " fill="#111111" transform="translate(246.70703125,21.01171875)"/>
<path d="M0 0 C2.1875 2.25 2.1875 2.25 4 5 C6.27432774 7.96351796 7.87200215 9.9146681 11 12 C11.640625 14.625 11.640625 14.625 11 18 C8.87965239 20.9617554 6.34238185 23.45074465 3.75 26 C-0.6709307 30.44600214 -4.73937853 34.6216553 -8 40 C-7.10152344 39.70351562 -6.20304687 39.40703125 -5.27734375 39.1015625 C0.18552658 37.54074241 5.80901457 37.0297081 11.4375 36.375 C13.1071582 36.17390625 13.1071582 36.17390625 14.81054688 35.96875 C17.53980223 35.64077082 20.26956742 35.31800347 23 35 C23.99 36.32 24.98 37.64 26 39 C25.5 40.8125 25.5 40.8125 24 43 C18.21160236 45.66570944 12.58279839 46.64575569 6.30444336 47.58154297 C-6.33453917 49.51398167 -16.1193791 51.05598645 -24.27001953 61.65087891 C-26.97050229 65.34815002 -29.39696164 69.19150899 -31.79541016 73.08886719 C-33.68255726 76.082906 -35.73819498 78.94630099 -37.8125 81.8125 C-38.21452637 82.37251709 -38.61655273 82.93253418 -39.03076172 83.50952148 C-41.44056597 86.86064086 -43.87241894 90.19536206 -46.30859375 93.52734375 C-58.02579943 109.57944978 -67.52199163 123.15582515 -66.80566406 143.74267578 C-66.53579863 153.47440211 -66.53579863 153.47440211 -69 156.875 C-72.88456749 159.62656864 -75.28525898 159.84017827 -80 160 C-80.85678194 158.5342909 -81.68416898 157.05139161 -82.5 155.5625 C-82.9640625 154.73878906 -83.428125 153.91507813 -83.90625 153.06640625 C-86.92936414 144.59088982 -84.12679741 137.56141866 -80.875 129.5625 C-80.03190112 127.42315496 -79.19207675 125.28251668 -78.35546875 123.140625 C-77.94603027 122.09455078 -77.5365918 121.04847656 -77.11474609 119.97070312 C-75.87524054 116.66752669 -74.83508522 113.33943978 -73.83105469 109.95922852 C-69.02990925 93.94387502 -59.56446317 79.58716385 -50 66 C-50.72445313 66.2165625 -51.44890625 66.433125 -52.1953125 66.65625 C-62.98726115 69.76433121 -62.98726115 69.76433121 -67 69 C-69.875 66.9375 -69.875 66.9375 -72 64 C-72.1328125 60.31640625 -72.1328125 60.31640625 -72 57 C-93.14607597 55.40868893 -115.96251542 67.23681951 -133 79 C-133.65790527 79.44279297 -134.31581055 79.88558594 -134.99365234 80.34179688 C-158.44193493 96.15108983 -190.98899174 118.40598109 -200.9375 146.1875 C-202.81797735 151.17620438 -205.30679771 154.3807647 -210 157 C-212.44483722 157.7087174 -214.43053191 157.89512375 -217 158 C-220.15555391 153.26666913 -219.52804444 148.71730896 -218.46484375 143.24609375 C-216.66640058 136.18007932 -214.03849218 130.05773827 -210 124 C-209.52675524 122.52986508 -209.10054451 121.04423517 -208.70703125 119.55078125 C-206.94339078 113.47430819 -204.4222428 107.88309342 -201.6875 102.1875 C-201.16478516 101.09872559 -200.64207031 100.00995117 -200.10351562 98.88818359 C-195.13830484 88.82439893 -189.13305123 79.71874928 -182.72705078 70.53173828 C-179.31688168 65.53266371 -176.16158127 60.36850642 -172.99414062 55.21337891 C-167.28279385 46.02282266 -160.94528628 39.47264314 -151.125 34.5625 C-146.13990867 33.66518356 -141.03092339 33.32485444 -136 34 C-134.1640625 35.31640625 -134.1640625 35.31640625 -133 37 C-132.23588603 42.67627518 -133.69901449 46.47265173 -137 51 C-139.16974965 53.14508945 -141.53993303 54.99213726 -143.9375 56.875 C-151.76165339 63.33768387 -157.63646433 70.67568452 -163.50537109 78.90869141 C-164.95675639 80.93949286 -166.43612866 82.94637958 -167.92578125 84.94921875 C-171.984527 90.46553699 -175.47730793 95.62096336 -178 102 C-177.60852783 101.57952393 -177.21705566 101.15904785 -176.8137207 100.72583008 C-172.01802913 95.73734688 -166.78812618 91.72832463 -161.1875 87.6875 C-154.70041709 82.93085484 -148.72244868 78.27112968 -143.36328125 72.24609375 C-137.03737143 66.23386541 -129.09150168 62.30323249 -121.4375 58.25 C-115.35159686 55.00665708 -109.42450964 51.71153159 -103.71289062 47.84399414 C-94.15769137 41.40061787 -82.79371803 36.6052834 -71.06640625 37.19921875 C-68 38 -68 38 -66 41 C-66.375 44.6875 -66.375 44.6875 -67 48 C-65.91203125 47.68804687 -64.8240625 47.37609375 -63.703125 47.0546875 C-57.49701603 45.4990593 -51.14905311 45.30836997 -44.78125 44.96484375 C-39.25060251 44.64070296 -39.25060251 44.64070296 -34.44140625 42.15625 C-33.16443628 40.24598598 -32.09688606 38.48047511 -31.1875 36.375 C-29.594639 32.94812773 -27.65938226 30.13300646 -25.375 27.125 C-22.28725557 22.86221541 -21.32989466 19.58825117 -20.5703125 14.45703125 C-19.22726018 8.67086748 -15.51073222 3.62924281 -10.5625 0.375 C-6.36313602 -1.24580715 -4.27890475 -1.37247888 0 0 Z " fill="#0E0D0D" transform="translate(1121,44)"/>
<path d="M0 0 C1.18464844 -0.02578125 2.36929688 -0.0515625 3.58984375 -0.078125 C8.06612671 0.34483087 11.32994791 1.67304118 14.671875 4.71484375 C20.72809471 12.53400412 21.10119491 19.59311722 20.0625 29.25 C17.77414122 41.87353473 12.08948373 52.91951741 2.67578125 61.70703125 C0.8315424 63.40652349 0.8315424 63.40652349 -1.375 66.25 C-3.50016439 68.73799733 -5.51568679 70.65987671 -8 72.75 C-10.50610085 74.87090387 -12.00330965 76.35665702 -13.75 79.1875 C-16.81325117 83.47605164 -20.66029328 85.99212668 -24.99804688 88.92919922 C-27.26842405 90.47536494 -29.51535393 92.05362935 -31.765625 93.62890625 C-47.57156277 104.57023985 -62.05620185 111.64303719 -80.9375 115.25 C-82.63712891 115.58837891 -82.63712891 115.58837891 -84.37109375 115.93359375 C-95.89217472 117.97833884 -108.47730646 119.50519574 -118.9375 113.25 C-119.95273902 112.26547487 -120.95514532 111.26733932 -121.9375 110.25 C-128.36658626 121.29153692 -134.70036311 132.32988003 -140.265625 143.8359375 C-141.24916728 145.84438598 -142.26669129 147.8378416 -143.359375 149.7890625 C-148.92688144 159.78995369 -151.78372953 171.9712336 -152.64526367 183.33837891 C-153.14294097 186.59386199 -154.52520589 188.08512067 -156.9375 190.25 C-162.29545235 193.86156877 -166.54015592 194.70695315 -172.9375 194.25 C-176.20773916 188.23275995 -176.1742762 183.92503504 -174.9375 177.25 C-173.97889949 174.05378502 -172.73218777 171.04577072 -171.375 168 C-171.01639893 167.17209961 -170.65779785 166.34419922 -170.28833008 165.49121094 C-167.60666763 159.4324013 -164.50053061 153.80854556 -161.109375 148.1171875 C-158.39855663 143.43191486 -156.16584867 138.52511325 -153.875 133.625 C-144.18211943 113.01029867 -133.01804139 93.12701248 -121.70751953 73.36474609 C-120.0672993 70.47841097 -118.44526036 67.58288813 -116.83006287 64.68252563 C-115.39245395 62.1039807 -113.94637814 59.53023601 -112.49923706 56.95703125 C-111.79864709 55.70691986 -111.10156517 54.45483517 -110.40823364 53.20068359 C-109.43811301 51.44739311 -108.45367572 49.70204783 -107.46875 47.95703125 C-106.90736328 46.9513208 -106.34597656 45.94561035 -105.76757812 44.90942383 C-103.80061934 42.05108844 -101.68291631 40.33828098 -98.9375 38.25 C-97.90357672 36.10114259 -97.90357672 36.10114259 -97.4375 33.8125 C-96.14455829 29.41649818 -94.50323033 27.24845505 -90.9375 24.25 C-90.43347656 23.75757812 -89.92945313 23.26515625 -89.41015625 22.7578125 C-82.04124462 15.78768903 -72.9097728 13.05822552 -62.9375 13.25 C-61.8125 14.8125 -61.8125 14.8125 -60.9375 17.25 C-61.54555146 19.59928975 -62.20829475 21.93544851 -62.9375 24.25 C-62.0403125 23.693125 -61.143125 23.13625 -60.21875 22.5625 C-42.00345896 11.36544618 -21.94507514 0.28592932 0 0 Z M-27.875 20 C-28.82568359 20.25265625 -29.77636719 20.5053125 -30.75585938 20.765625 C-38.1316253 22.79891678 -45.18459123 25.10136119 -50.75 30.5625 C-53.7637645 33.3344556 -56.82558941 35.53944537 -60.3125 37.6875 C-65.89550269 41.1421757 -70.90751238 45.04190578 -75.9375 49.25 C-76.66453125 49.806875 -77.3915625 50.36375 -78.140625 50.9375 C-88.70174983 59.44718332 -96.47613999 72.45849731 -102.9375 84.25 C-103.79021484 85.76400391 -103.79021484 85.76400391 -104.66015625 87.30859375 C-105.22605469 88.36175781 -105.79195312 89.41492188 -106.375 90.5 C-106.88933594 91.45390625 -107.40367187 92.4078125 -107.93359375 93.390625 C-109.13711076 96.81854116 -108.92604679 98.78270901 -107.9375 102.25 C-103.9829437 105.83381665 -99.10571091 106.36453099 -93.9375 106.25 C-88.52377819 105.57479193 -83.24541389 104.48233989 -77.9375 103.25 C-77.18130371 103.07694336 -76.42510742 102.90388672 -75.64599609 102.72558594 C-59.64950354 98.96447581 -48.30880252 92.39407809 -36.63037109 80.90771484 C-34.91384678 79.22683799 -33.17209415 77.57563942 -31.42578125 75.92578125 C-18.88025306 63.92188592 -2.09714971 46.62965645 -0.625 28.375 C-0.67148841 25.2137879 -0.95168607 24.22583113 -2.625 21.375 C-6.44229674 17.86721381 -9.63646236 16.99866598 -14.7902832 17.0559082 C-19.27097721 17.4609283 -23.55730609 18.78719739 -27.875 20 Z " fill="#0E0D0D" transform="translate(784.9375,91.75)"/>
<path d="M0 0 C2.12824183 0.84987801 2.12824183 0.84987801 5.46484375 0.65625 C9.85458245 0.65625 12.06104801 1.54730332 15.90234375 3.65625 C18.61524435 6.9589116 17.94538033 10.5438656 17.90234375 14.65625 C29.75400872 14.1821834 41.22218281 12.67488651 52.90234375 10.65625 C53.65234375 12.90625 53.65234375 12.90625 53.90234375 15.65625 C51.06581086 19.24802471 48.47167767 20.40162763 44.10546875 21.54296875 C42.98140625 21.84138672 41.85734375 22.13980469 40.69921875 22.44726562 C39.52875 22.74310547 38.35828125 23.03894531 37.15234375 23.34375 C35.41984375 23.80491211 35.41984375 23.80491211 33.65234375 24.27539062 C27.73851752 25.81798114 21.99015878 27.09395181 15.90234375 27.65625 C15.67546875 28.790625 15.44859375 29.925 15.21484375 31.09375 C14.7879627 32.9503902 14.34835895 34.8041132 13.90234375 36.65625 C13.68433105 37.58945068 13.68433105 37.58945068 13.46191406 38.54150391 C11.14352869 48.21069799 8.25348846 55.55358056 2.21875 63.546875 C-0.09155223 66.6480564 -2.02726612 69.8167302 -3.97265625 73.15625 C-14.16265269 89.94335568 -30.70596443 108.78785745 -50.21875 114.25 C-55.9477819 115.23275791 -61.07803705 114.44386456 -66.05078125 111.5 C-70.99283141 107.76231501 -73.03391136 103.70330427 -74.09765625 97.65625 C-76.9475638 72.00708208 -60.79718221 44.58926478 -46.09765625 24.65625 C-44.77749627 23.63892242 -43.44680059 22.63481392 -42.09765625 21.65625 C-41.68515625 20.604375 -41.27265625 19.5525 -40.84765625 18.46875 C-37.57967042 10.39191456 -30.3924054 5.9089303 -23.16015625 1.65625 C-22.50442627 1.25809082 -21.84869629 0.85993164 -21.1730957 0.44970703 C-13.86849011 -3.634957 -7.5362316 -3.22341787 0 0 Z M-21.09765625 24.65625 C-21.48953125 25.56375 -21.88140625 26.47125 -22.28515625 27.40625 C-24.09765625 30.65625 -24.09765625 30.65625 -26.47265625 32.40625 C-29.66420716 35.14186506 -30.7065101 37.73305576 -32.45703125 41.5 C-34.5251934 45.47875004 -36.98282723 49.11966821 -39.47265625 52.84375 C-49.24978206 67.70975615 -56.60481285 83.50004362 -56.09765625 101.65625 C-52.59949335 103.436515 -52.59949335 103.436515 -48.80859375 103.07421875 C-32.28253292 94.36901948 -21.1019235 81.10176428 -12.0625 65.05859375 C-11.71453369 64.44209961 -11.36656738 63.82560547 -11.00805664 63.19042969 C-10.02567671 61.43831421 -9.05734691 59.67834275 -8.08984375 57.91796875 C-6.60509051 55.48704924 -5.26864927 53.60779273 -3.42578125 51.5 C-1.2763787 48.87455527 -0.46173944 47.71049369 0.02734375 44.46875 C0.68273252 40.77588634 1.52345884 37.20959473 2.52734375 33.59375 C2.78773437 32.65402344 3.048125 31.71429688 3.31640625 30.74609375 C3.60644531 29.71162109 3.60644531 29.71162109 3.90234375 28.65625 C2.93554688 28.53507812 1.96875 28.41390625 0.97265625 28.2890625 C-6.45095579 27.33354808 -13.78290581 26.27410069 -21.09765625 24.65625 Z " fill="#0E0D0D" transform="translate(1538.09765625,87.34375)"/>
<path d="M0 0 C2.12824183 0.84987801 2.12824183 0.84987801 5.46484375 0.65625 C9.85458245 0.65625 12.06104801 1.54730332 15.90234375 3.65625 C18.61524435 6.9589116 17.94538033 10.5438656 17.90234375 14.65625 C29.75400872 14.1821834 41.22218281 12.67488651 52.90234375 10.65625 C53.65234375 12.90625 53.65234375 12.90625 53.90234375 15.65625 C51.06581086 19.24802471 48.47167767 20.40162763 44.10546875 21.54296875 C42.98140625 21.84138672 41.85734375 22.13980469 40.69921875 22.44726562 C39.52875 22.74310547 38.35828125 23.03894531 37.15234375 23.34375 C35.41984375 23.80491211 35.41984375 23.80491211 33.65234375 24.27539062 C27.73851752 25.81798114 21.99015878 27.09395181 15.90234375 27.65625 C15.81597656 28.1925 15.72960937 28.72875 15.640625 29.28125 C12.79349994 45.16246135 7.62638589 56.60223722 -1.72167969 69.68359375 C-3.47928519 72.20336885 -5.03676126 74.82368656 -6.59765625 77.46875 C-15.8872821 92.18297489 -31.58545415 107.80483858 -48.09765625 113.65625 C-54.64005363 114.94327899 -60.35752189 115.16191958 -66.0859375 111.32421875 C-72.00374147 106.48460681 -73.53372752 102.25130759 -74.296875 94.6796875 C-75.33325612 73.88059048 -64.82559794 54.68092449 -54.28027344 37.57470703 C-53.18968146 35.80553449 -52.11554592 34.02624559 -51.04296875 32.24609375 C-48.33639967 27.83775484 -46.23637481 24.75599565 -42.09765625 21.65625 C-41.68515625 20.604375 -41.27265625 19.5525 -40.84765625 18.46875 C-37.57967042 10.39191456 -30.3924054 5.9089303 -23.16015625 1.65625 C-22.50442627 1.25809082 -21.84869629 0.85993164 -21.1730957 0.44970703 C-13.86849011 -3.634957 -7.5362316 -3.22341787 0 0 Z M-21.09765625 24.65625 C-21.96390625 26.2959375 -21.96390625 26.2959375 -22.84765625 27.96875 C-24.07845536 30.2984769 -24.96168417 31.55671316 -27.109375 33.12890625 C-29.39596465 34.88540243 -30.02948346 36.1536946 -31.16015625 38.78125 C-33.51602786 43.79203574 -36.40537676 48.25392353 -39.47265625 52.84375 C-46.96486889 64.23080864 -52.35252895 75.15570049 -54.58984375 88.70703125 C-55.09765625 91.65625 -55.09765625 91.65625 -56.09765625 93.65625 C-56.16660345 95.02967831 -56.18233333 96.40627102 -56.16015625 97.78125 C-56.13953125 99.06 -56.11890625 100.33875 -56.09765625 101.65625 C-52.59949335 103.436515 -52.59949335 103.436515 -48.80859375 103.07421875 C-29.16623672 92.72749222 -17.60637451 76.16594541 -7.47265625 57 C-6.09765625 54.65625 -6.09765625 54.65625 -3.41015625 51.71875 C0.03994573 47.14969603 0.74733272 42.1858653 1.90234375 36.65625 C2.29018704 35.07094055 2.68475035 33.4872395 3.08984375 31.90625 C3.35796875 30.83375 3.62609375 29.76125 3.90234375 28.65625 C2.36513672 28.47449219 2.36513672 28.47449219 0.796875 28.2890625 C-0.56384604 28.12014541 -1.92452075 27.9508548 -3.28515625 27.78125 C-3.95869141 27.70261719 -4.63222656 27.62398437 -5.32617188 27.54296875 C-9.22167895 27.04890444 -12.50006952 26.19807288 -16.09765625 24.65625 C-18.80652566 24.48826738 -18.80652566 24.48826738 -21.09765625 24.65625 Z " fill="#0E0D0D" transform="translate(876.09765625,87.34375)"/>
<path d="M0 0 C0.9384375 -0.02578125 1.876875 -0.0515625 2.84375 -0.078125 C5.95379436 0.30605695 7.28067757 1.06647309 9.5 3.25 C11.00109649 10.30515351 7.23198434 16.43314965 3.5 22.25 C-1.44342232 28.13861136 -7.14742729 32.82748093 -13.28125 37.40625 C-16.66345854 40.21681766 -19.42364307 43.51414385 -22.30078125 46.828125 C-24.91546513 49.7075282 -27.75339516 52.16293071 -30.7265625 54.66015625 C-32.39773239 56.15831956 -33.74424428 57.67417821 -35.125 59.4375 C-37.5 62.25 -37.5 62.25 -40.30078125 63.9609375 C-44.19085254 66.74430963 -46.40518851 69.76439146 -49.0625 73.6875 C-49.57353271 74.4290332 -50.08456543 75.17056641 -50.61108398 75.93457031 C-64.10147127 95.72456897 -76.35121955 116.32182141 -85.0625 138.68359375 C-86.5 142.25 -86.5 142.25 -88.11328125 145.38671875 C-89.47109441 148.19031607 -90.15085535 150.57025351 -90.6875 153.625 C-90.84605469 154.49898437 -91.00460937 155.37296875 -91.16796875 156.2734375 C-91.27753906 156.92570313 -91.38710937 157.57796875 -91.5 158.25 C-90.40042969 157.63511719 -89.30085938 157.02023438 -88.16796875 156.38671875 C-74.74504052 149.00601165 -74.74504052 149.00601165 -69.0625 147.8125 C-61.28201242 146.08482665 -54.55320839 141.51363563 -47.73608398 137.54248047 C-29.59190208 127.05494919 -29.59190208 127.05494919 -26.26953125 127.6484375 C-25.68558594 127.84695312 -25.10164063 128.04546875 -24.5 128.25 C-25.15683921 133.52555677 -27.17244055 135.21002003 -31.14160156 138.47412109 C-35.06730142 141.43018121 -39.17136798 144.02251975 -43.375 146.5625 C-44.73733765 147.39563721 -44.73733765 147.39563721 -46.12719727 148.24560547 C-55.72528378 154.07209069 -65.45908743 159.97820048 -75.65234375 164.71484375 C-78.95717076 166.49645831 -81.38754738 168.6235479 -84.125 171.1875 C-85.04539062 172.04214844 -85.96578125 172.89679688 -86.9140625 173.77734375 C-88.51588374 175.30899458 -90.07809732 176.88481631 -91.5703125 178.5234375 C-93.78815284 180.50782096 -94.808269 180.86871852 -97.75 180.9375 C-102.54320506 180.65928743 -105.63359986 179.05390014 -109.015625 175.671875 C-112.8342083 169.44155489 -111.15604119 161.90865539 -109.63671875 155.125 C-107.22007047 145.59180764 -103.23995093 137.06641459 -98.63427734 128.42333984 C-97.41640529 126.08982779 -96.26013984 123.73246793 -95.11328125 121.36328125 C-90.22739168 111.2916356 -84.95049801 101.71870997 -78.84912109 92.33642578 C-76.86598282 89.26948772 -74.92683634 86.17529087 -72.9831543 83.08325195 C-69.32680187 77.26808649 -65.65043178 71.46688047 -61.91503906 65.70214844 C-53.03487238 52.30728625 -53.03487238 52.30728625 -45.5625 38.125 C-43.5183148 33.84326072 -40.56469346 30.22435342 -37.61865234 26.53662109 C-35.21511599 23.52244253 -32.96004823 20.48841239 -30.859375 17.25390625 C-24.99526307 8.36728932 -20.31135376 3.77116617 -9.5 1.25 C-8.49259766 0.95996094 -8.49259766 0.95996094 -7.46484375 0.6640625 C-4.95440561 0.13502385 -2.56451866 0.04227229 0 0 Z " fill="#0E0D0D" transform="translate(1427.5,23.75)"/>
<path d="M0 0 C4.78220792 5.02744935 5.37220101 8.52148612 5.265625 15.2890625 C5 18 5 18 3.5625 21.1875 C0.3402687 23.46663921 -1.81541832 23.55967899 -5.68359375 23.56640625 C-8 23 -8 23 -10.3125 21 C-15.48692513 17.14926502 -22.80865994 18.15864725 -29 19 C-39.66673634 21.85174407 -47.3973442 27.75821028 -54.33203125 36.12109375 C-55.89108235 37.87730823 -57.44286423 39.21711447 -59.3125 40.625 C-62.34712351 43.30676031 -63.13190088 45.09355396 -64 49 C-64 49.66 -64 50.32 -64 51 C-63.3915625 51.13535156 -62.783125 51.27070313 -62.15625 51.41015625 C-51.36004022 54.06157836 -34.00006789 58.79390851 -27.82421875 68.9296875 C-26.52389263 72.19590951 -26.40602927 75.57029804 -27 79 C-29.68888412 84.18979154 -33.55223308 88.21513334 -37.53369141 92.44140625 C-38.56001221 93.53232067 -39.5800174 94.62919549 -40.59521484 95.73046875 C-57.95964661 114.46827376 -81.54802152 131.177675 -107.75390625 133.3046875 C-116.82174355 133.48705741 -116.82174355 133.48705741 -121 131 C-121 130.34 -121 129.68 -121 129 C-121.66 129 -122.32 129 -123 129 C-122.67 127.02 -122.34 125.04 -122 123 C-119.03172117 122.12465391 -117.41109666 122.04827077 -114.1875 122.3125 C-99.26708852 122.43479845 -81.83682974 110.22594964 -71 101 C-70.29101562 100.40058594 -69.58203125 99.80117187 -68.8515625 99.18359375 C-65.82445658 96.57848215 -62.89623154 93.93907075 -60.125 91.0625 C-58 89 -58 89 -56 89 C-55.9175 88.319375 -55.835 87.63875 -55.75 86.9375 C-54.95790993 83.83514723 -53.57109883 81.5664854 -51.921875 78.84765625 C-50.46918703 75.93612486 -50.26317379 73.22387898 -50 70 C-54.15100801 68.2577007 -58.38960409 66.88692253 -62.6875 65.5625 C-63.74662598 65.23100952 -63.74662598 65.23100952 -64.82714844 64.89282227 C-68.78294857 63.65991014 -72.75065306 62.5222707 -76.75 61.4375 C-80.41749826 60.35266018 -82.65741732 59.15739405 -85 56 C-86.92050836 52.15898328 -85.9476691 48.05754874 -85 44 C-76.46654353 23.79341912 -55.20858299 10.76032086 -36 2 C-24.32884601 -2.62249206 -11.7579857 -5.98213308 0 0 Z " fill="#0E0D0D" transform="translate(586,86)"/>
<path d="M0 0 C2.64013687 2.756254 3.90498241 4.61855338 4.3125 8.44921875 C1.74087798 14.44967012 -2.56344104 18.52195384 -7.83203125 22.234375 C-12.32176167 25.54336294 -15.38140576 29.45350174 -18.625 33.94921875 C-19.69848138 35.40775324 -20.77398663 36.86480043 -21.8515625 38.3203125 C-22.36984619 39.02454346 -22.88812988 39.72877441 -23.42211914 40.4543457 C-24.96892071 42.47119497 -26.59811219 44.36934394 -28.28515625 46.26953125 C-30.43326906 48.72959168 -31.79684745 50.80722928 -32.8125 53.94921875 C-34.32988731 57.71458726 -35.87040877 59.37349856 -39.125 61.76171875 C-44.28223517 65.96803515 -46.70743833 71.16948313 -49.5 77.07421875 C-50.1499292 78.44078613 -50.1499292 78.44078613 -50.81298828 79.83496094 C-53.06528811 84.79092329 -54.57848769 89.08042904 -55 94.51171875 C-55.47540102 99.93129039 -56.41065034 103.32414415 -60 107.51171875 C-62.75 108.38671875 -62.75 108.38671875 -65 108.51171875 C-70.03644898 99.06837691 -68.20151655 89.43048313 -65.5625 79.44921875 C-65.29808105 78.42699219 -65.03366211 77.40476562 -64.76123047 76.3515625 C-60.64186413 60.91389171 -55.75804379 45.43720642 -48.6875 31.07421875 C-48.37441895 30.43613281 -48.06133789 29.79804687 -47.73876953 29.140625 C-46.35332454 26.48956528 -45.20764422 24.6661679 -42.7890625 22.8671875 C-40.79427576 21.67374154 -40.79427576 21.67374154 -40.63671875 19.49609375 C-40.65347656 18.75875 -40.67023438 18.02140625 -40.6875 17.26171875 C-40.31605548 12.47937053 -38.84528718 10.34706926 -35.28515625 7.2109375 C-25.58192395 -0.00428652 -11.57247807 -8.61155106 0 0 Z " fill="#0E0D0D" transform="translate(1471,94.48828125)"/>
<path d="M0 0 C3.22544253 2.87674604 3.94167806 4.49176593 4.4375 8.8125 C3.89173382 18.05634796 -1.55858777 25.54705411 -6.375 33.125 C-7.035 34.18332031 -7.695 35.24164063 -8.375 36.33203125 C-16.9023717 49.87050784 -16.9023717 49.87050784 -21.4375 52.3125 C-24.24036537 54.15828939 -25.13962477 55.61118597 -26.875 58.4375 C-29.72962768 62.94016015 -32.0110959 65.05987063 -37 67 C-39.4375 66.25 -39.4375 66.25 -41 65 C-41.57490094 61.79698047 -41.43592481 59.69280907 -39.6875 56.9140625 C-37.84038878 54.56394331 -35.9406163 52.27350954 -34 50 C-25.5133009 39.93438014 -21.42717817 31.51322388 -21.36376953 18.28149414 C-21.30678297 13.69007678 -21.0102177 10.70746188 -18 7 C-15.87890625 5.26953125 -15.87890625 5.26953125 -13.5625 3.8125 C-12.80066406 3.32394531 -12.03882813 2.83539063 -11.25390625 2.33203125 C-4.47095761 -1.67660911 -4.47095761 -1.67660911 0 0 Z " fill="#0E0D0D" transform="translate(480,33)"/>
<path d="M0 0 C2.7164984 2.8209791 2.85165852 5.80831953 3 9.5625 C2.92827359 13.09246396 2.78121275 14.43644379 0.875 17.5 C-3.89083902 20.70777627 -9.0217946 22.6586921 -14.375 24.6875 C-15.25929688 25.05617188 -16.14359375 25.42484375 -17.0546875 25.8046875 C-20.07112991 26.95235751 -22.17935035 27.17379451 -25.375 26.6875 C-29.23525251 22.69413533 -29.36623832 17.00584247 -29.375 11.6875 C-28.65435834 8.30048421 -28.05449907 7.20227202 -25.3125 5.125 C-6.96930414 -3.85145755 -6.96930414 -3.85145755 0 0 Z " fill="#0E0D0D" transform="translate(1496.375,47.3125)"/>
<path d="M0 0 C1.32 0.33 2.64 0.66 4 1 C2.18632198 4.84534619 -0.14008594 8.20137355 -2.5625 11.68359375 C-5.43779823 16.31688681 -6.3656761 20.60824685 -7 26 C-7.99 26.33 -8.98 26.66 -10 27 C-10 23.33333333 -10 19.66666667 -10 16 C-11.0828125 17.11375 -11.0828125 17.11375 -12.1875 18.25 C-19.09090909 25 -19.09090909 25 -24 25 C-24.82641375 18.71925552 -21.97574793 14.2911714 -19 9 C-18.66613281 8.35933594 -18.33226562 7.71867188 -17.98828125 7.05859375 C-17.0625 5.4375 -17.0625 5.4375 -15 3 C-11.75 2.125 -11.75 2.125 -9 2 C-9.70415267 6.78823819 -12.83469607 9.24217419 -16.08984375 12.5859375 C-18.23066902 15.29152036 -19.09020993 17.69427063 -20 21 C-12.65307871 14.63166454 -5.42439727 8.13659591 0 0 Z " fill="#FFFFFF" transform="translate(24,178)"/>
</svg>
